<?xml version="1.0" encoding="UTF-8" standalone="no"?>
<!-- Created with Inkscape (http://www.inkscape.org/) -->

<svg
   xmlns:dc="http://purl.org/dc/elements/1.1/"
   xmlns:cc="http://creativecommons.org/ns#"
   xmlns:rdf="http://www.w3.org/1999/02/22-rdf-syntax-ns#"
   xmlns:svg="http://www.w3.org/2000/svg"
   xmlns="http://www.w3.org/2000/svg"
   xmlns:sodipodi="http://sodipodi.sourceforge.net/DTD/sodipodi-0.dtd"
   xmlns:inkscape="http://www.inkscape.org/namespaces/inkscape"
   width="300px"
   height="100px"
   id="svg3765"
   version="1.1"
   inkscape:version="0.47 r22583"
   sodipodi:docname="clone_button_on.svg">
  <defs
     id="defs3767">
    <inkscape:perspective
       sodipodi:type="inkscape:persp3d"
       inkscape:vp_x="0 : 526.18109 : 1"
       inkscape:vp_y="0 : 1000 : 0"
       inkscape:vp_z="744.09448 : 526.18109 : 1"
       inkscape:persp3d-origin="372.04724 : 350.78739 : 1"
       id="perspective3773" />
    <filter
       inkscape:collect="always"
       id="filter5453">
      <feGaussianBlur
         inkscape:collect="always"
         stdDeviation="0.9"
         id="feGaussianBlur5455" />
    </filter>
  </defs>
  <sodipodi:namedview
     id="base"
     pagecolor="#ffffff"
     bordercolor="#666666"
     borderopacity="1.0"
     inkscape:pageopacity="0.0"
     inkscape:pageshadow="2"
     inkscape:zoom="1.979899"
     inkscape:cx="87.195707"
     inkscape:cy="-5.9213819"
     inkscape:document-units="px"
     inkscape:current-layer="layer1"
     showgrid="true"
     inkscape:window-width="1388"
     inkscape:window-height="882"
     inkscape:window-x="1438"
     inkscape:window-y="-3"
     inkscape:window-maximized="1">
    <inkscape:grid
       type="xygrid"
       id="grid3802" />
  </sodipodi:namedview>
  <metadata
     id="metadata3770">
    <rdf:RDF>
      <cc:Work
         rdf:about="">
        <dc:format>image/svg+xml</dc:format>
        <dc:type
           rdf:resource="http://purl.org/dc/dcmitype/StillImage" />
        <dc:title></dc:title>
      </cc:Work>
    </rdf:RDF>
  </metadata>
  <g
     inkscape:label="Calque 1"
     inkscape:groupmode="layer"
     id="layer1">
    <path
       style="fill:#685f62;stroke:#41fd69;stroke-width:3.89999999999999991;stroke-linecap:butt;stroke-linejoin:miter;stroke-opacity:1;fill-opacity:1;stroke-miterlimit:4;stroke-dasharray:none;opacity:1;filter:url(#filter5453)"
       d="m 10,10 280,0 0,80 -280,0 0,-80 z"
       id="path3804" />
    <g
       transform="translate(-40.781746,49.19545)"
       style="font-size:40px;font-style:normal;font-variant:normal;font-weight:normal;font-stretch:normal;line-height:125%;letter-spacing:0px;word-spacing:0px;fill:#41fd69;fill-opacity:1;stroke:none;font-family:Droid Sans;-inkscape-font-specification:Droid Sans"
       id="text4835">
      <path
         d="m 91.429207,19.124863 0,-41.640625 -11.679688,0 0,45.512695 c -2e-6,1.650397 0.211587,2.983403 0.634766,3.999023 0.423174,0.973311 0.994463,1.756187 1.713867,2.348633 0.761714,0.550131 1.608067,0.93099 2.539063,1.142578 0.973299,0.211589 1.946605,0.317383 2.919922,0.317383 l 38.974613,0 0,-7.807617 -31.230473,0 c -0.338559,8e-6 -0.719418,-0.02115 -1.142578,-0.06348 -0.423193,-0.04231 -0.84637,-0.190421 -1.269531,-0.444336 -0.380874,-0.253897 -0.719416,-0.634756 -1.015625,-1.142578 -0.296238,-0.55012 -0.44435,-1.290679 -0.444336,-2.221679 m 3.87207,-33.833008 15.615233,0 c 0.33851,4.5e-5 0.71937,0.0212 1.14258,0.06348 0.46546,0.04236 0.88864,0.211634 1.26953,0.507813 0.38082,0.253951 0.71937,0.63481 1.01563,1.142578 0.3385,0.507856 0.50777,1.248415 0.50781,2.22168 l 0,5.332031 11.67969,0 0,-9.267578 c -5e-5,-1.650344 -0.21164,-2.962191 -0.63477,-3.935547 -0.42322,-1.015575 -1.01567,-1.798451 -1.77734,-2.348633 -0.71945,-0.550078 -1.5658,-0.930937 -2.53907,-1.142578 -0.93103,-0.253853 -1.88318,-0.380806 -2.85644,-0.380859 l -23.422853,0 0,7.807617"
         style="font-size:130px;font-family:'It wasn\'t me';-inkscape-font-specification:'It wasn\'t me';fill:#41fd69;fill-opacity:1"
         id="path4840" />
      <path
         d="m 135.60889,-23.785294 c 0,-0.973251 -0.14812,-1.71381 -0.44433,-2.221679 -0.29623,-0.507755 -0.63478,-0.888614 -1.01563,-1.142578 -0.38086,-0.296166 -0.80404,-0.465437 -1.26953,-0.507813 -0.42318,-0.04226 -0.80404,-0.06342 -1.14258,-0.06348 l -3.2373,0 0,-7.744141 11.04492,0 c 0.93098,6.6e-5 1.86197,0.10586 2.79297,0.317383 0.97329,0.211654 1.81964,0.592513 2.53906,1.142578 0.7617,0.550194 1.35415,1.333071 1.77735,2.348633 0.46547,0.973368 0.69822,2.285216 0.69824,3.935547 l 0,58.52539 -11.74317,0 0,-54.589844"
         style="font-size:130px;font-family:'It wasn\'t me';-inkscape-font-specification:'It wasn\'t me';fill:#41fd69;fill-opacity:1"
         id="path4842" />
      <path
         d="m 166.90284,-14.708145 15.61523,0 c 0.33851,4.5e-5 0.71937,0.0212 1.14258,0.06348 0.46546,0.04236 0.88864,0.211634 1.26953,0.507813 0.38083,0.253951 0.71937,0.63481 1.01563,1.142578 0.3385,0.507856 0.50777,1.248415 0.50781,2.22168 l 0,41.577148 11.67969,0 0,-45.512695 c -5e-5,-1.650344 -0.21164,-2.962191 -0.63477,-3.935547 -0.42322,-1.015575 -1.01567,-1.798451 -1.77734,-2.348633 -0.71945,-0.550078 -1.5658,-0.930937 -2.53906,-1.142578 -0.93104,-0.253853 -1.88318,-0.380806 -2.85645,-0.380859 l -23.42285,0 0,7.807617 m 15.61523,37.705078 -15.61523,0 c -0.33856,8e-6 -0.71942,-0.02115 -1.14258,-0.06348 -0.42319,-0.04231 -0.84637,-0.190421 -1.26953,-0.444336 -0.38087,-0.253897 -0.71942,-0.634756 -1.01562,-1.142578 -0.29624,-0.55012 -0.44435,-1.290679 -0.44434,-2.221679 l 0,-41.640625 -11.67969,0 0,45.512695 c 0,1.650397 0.21159,2.983403 0.63477,3.999023 0.42317,0.973311 0.99446,1.756187 1.71386,2.348633 0.76172,0.550131 1.60807,0.93099 2.53907,1.142578 0.9733,0.211589 1.9466,0.317383 2.91992,0.317383 l 23.35937,0 0,-7.807617"
         style="font-size:130px;font-family:'It wasn\'t me';-inkscape-font-specification:'It wasn\'t me';fill:#41fd69;fill-opacity:1"
         id="path4844" />
      <path
         d="m 202.13233,30.80455 11.67969,0 0,-53.320312 -11.67969,0 0,53.320312 m 15.55176,-45.512695 15.61523,0 c 0.33851,4.5e-5 0.71937,0.0212 1.14258,0.06348 0.46546,0.04236 0.88864,0.211634 1.26953,0.507813 0.38083,0.253951 0.71937,0.63481 1.01563,1.142578 0.3385,0.507856 0.50777,1.248415 0.50781,2.22168 l 0,41.577148 11.67969,0 0,-45.512695 c -5e-5,-1.650344 -0.21164,-2.962191 -0.63477,-3.935547 -0.42322,-1.015575 -1.01567,-1.798451 -1.77734,-2.348633 -0.71945,-0.550078 -1.5658,-0.930937 -2.53906,-1.142578 -0.93104,-0.253853 -1.88318,-0.380806 -2.85645,-0.380859 l -23.42285,0 0,7.807617"
         style="font-size:130px;font-family:'It wasn\'t me';-inkscape-font-specification:'It wasn\'t me';fill:#41fd69;fill-opacity:1"
         id="path4846" />
      <path
         d="m 288.01612,-10.772598 0,12.5683591 c -4e-5,0.9733353 -0.16931,1.7138945 -0.50781,2.2216797 -0.29626,0.5078388 -0.6348,0.9098566 -1.01563,1.2060547 -0.38089,0.2539316 -0.80407,0.4020434 -1.26953,0.4443359 -0.42321,0.042343 -0.80407,0.063502 -1.14258,0.063477 l -19.4873,0 0,-28.24707 -11.67969,0 0,45.512695 c 0,1.650397 0.21159,2.983403 0.63477,3.999023 0.42317,0.973311 0.99446,1.756187 1.71386,2.348633 0.76172,0.550131 1.60807,0.93099 2.53907,1.142578 0.9733,0.211589 1.9466,0.317383 2.91992,0.317383 l 38.97461,0 0,-7.807617 -31.23047,0 c -0.33856,8e-6 -0.71942,-0.02115 -1.14258,-0.06348 -0.42319,-0.04231 -0.84637,-0.190421 -1.26953,-0.444336 -0.38087,-0.253897 -0.71942,-0.634756 -1.01562,-1.142578 -0.29624,-0.55012 -0.44435,-1.290679 -0.44434,-2.221679 l 0,-5.585938 27.29492,0 c 0.97327,1.7e-5 1.92541,-0.105777 2.85645,-0.317383 0.97326,-0.253888 1.81961,-0.655906 2.53906,-1.206054 0.76167,-0.550111 1.35412,-1.311829 1.77734,-2.2851566 0.42313,-1.0156029 0.63472,-2.3486094 0.63477,-3.9990234 l 0,-20.439453 c -5e-5,-1.650344 -0.21164,-2.962191 -0.63477,-3.935547 -0.42322,-1.015575 -1.01567,-1.798451 -1.77734,-2.348633 -0.71945,-0.550078 -1.5658,-0.930937 -2.53906,-1.142578 -0.93104,-0.253853 -1.88318,-0.380806 -2.85645,-0.380859 l -23.42285,0 0,7.807617 15.61523,0 c 0.33851,4.5e-5 0.71937,0.0212 1.14258,0.06348 0.46546,0.04236 0.88864,0.211634 1.26953,0.507813 0.38083,0.253951 0.71937,0.63481 1.01563,1.142578 0.3385,0.507856 0.50777,1.248415 0.50781,2.22168"
         style="font-size:130px;font-family:'It wasn\'t me';-inkscape-font-specification:'It wasn\'t me';fill:#41fd69;fill-opacity:1"
         id="path4848" />
    </g>
  </g>
</svg>
