<?xml version="1.0" encoding="UTF-8" standalone="no"?>
<!-- Created with Inkscape (http://www.inkscape.org/) -->

<svg
   xmlns:dc="http://purl.org/dc/elements/1.1/"
   xmlns:cc="http://creativecommons.org/ns#"
   xmlns:rdf="http://www.w3.org/1999/02/22-rdf-syntax-ns#"
   xmlns:svg="http://www.w3.org/2000/svg"
   xmlns="http://www.w3.org/2000/svg"
   xmlns:sodipodi="http://sodipodi.sourceforge.net/DTD/sodipodi-0.dtd"
   xmlns:inkscape="http://www.inkscape.org/namespaces/inkscape"
   width="500px"
   height="150px"
   id="svg2816"
   version="1.1"
   inkscape:version="0.47 r22583"
   sodipodi:docname="control_board.svg">
  <defs
     id="defs2818">
    <inkscape:perspective
       sodipodi:type="inkscape:persp3d"
       inkscape:vp_x="0 : 24 : 1"
       inkscape:vp_y="0 : 1000 : 0"
       inkscape:vp_z="48 : 24 : 1"
       inkscape:persp3d-origin="24 : 16 : 1"
       id="perspective2824" />
  </defs>
  <sodipodi:namedview
     id="base"
     pagecolor="#ffffff"
     bordercolor="#666666"
     borderopacity="1.0"
     inkscape:pageopacity="0.0"
     inkscape:pageshadow="2"
     inkscape:zoom="2.4748737"
     inkscape:cx="180.39536"
     inkscape:cy="41.961335"
     inkscape:current-layer="layer1"
     showgrid="true"
     inkscape:grid-bbox="true"
     inkscape:document-units="px"
     inkscape:window-width="1388"
     inkscape:window-height="882"
     inkscape:window-x="1438"
     inkscape:window-y="-3"
     inkscape:window-maximized="1">
    <inkscape:grid
       type="xygrid"
       id="grid2849" />
  </sodipodi:namedview>
  <metadata
     id="metadata2821">
    <rdf:RDF>
      <cc:Work
         rdf:about="">
        <dc:format>image/svg+xml</dc:format>
        <dc:type
           rdf:resource="http://purl.org/dc/dcmitype/StillImage" />
        <dc:title />
      </cc:Work>
    </rdf:RDF>
  </metadata>
  <g
     id="layer1"
     inkscape:label="Layer 1"
     inkscape:groupmode="layer">
    <path
       style="fill:#81273f;stroke:#ce3762;stroke-width:1px;stroke-linecap:butt;stroke-linejoin:miter;stroke-opacity:1;fill-opacity:1"
       d="M 5,145 5,40 40,10 l 420,0 35,30 0,105 -1.28571,1.57143 L 5,145 z"
       id="path2851"
       sodipodi:nodetypes="cccccc" />
    <g
       id="g3637">
      <path
         d="m 50,20 a 5,5 0 1 1 -10,0 5,5 0 1 1 10,0 z"
         sodipodi:ry="5"
         sodipodi:rx="5"
         sodipodi:cy="20"
         sodipodi:cx="45"
         id="path3629"
         style="fill:#b1a5a8;fill-opacity:1;fill-rule:evenodd;stroke:#0f0006;stroke-width:1;stroke-linecap:round;stroke-linejoin:miter;stroke-miterlimit:4;stroke-opacity:1;stroke-dasharray:none;stroke-dashoffset:0"
         sodipodi:type="arc" />
      <path
         id="path3631"
         d="m 45,18 0,4"
         style="fill:none;stroke:#000000;stroke-width:1px;stroke-linecap:butt;stroke-linejoin:miter;stroke-opacity:1" />
      <path
         id="path3633"
         d="m 43,20 4,0"
         style="fill:none;stroke:#000000;stroke-width:1px;stroke-linecap:butt;stroke-linejoin:miter;stroke-opacity:1" />
    </g>
    <g
       id="use3642"
       transform="translate(410,0)">
      <path
         sodipodi:type="arc"
         style="fill:#b1a5a8;fill-opacity:1;fill-rule:evenodd;stroke:#0f0006;stroke-width:1;stroke-linecap:round;stroke-linejoin:miter;stroke-miterlimit:4;stroke-opacity:1;stroke-dasharray:none;stroke-dashoffset:0"
         id="path3646"
         sodipodi:cx="45"
         sodipodi:cy="20"
         sodipodi:rx="5"
         sodipodi:ry="5"
         d="m 50,20 c 0,2.761424 -2.238576,5 -5,5 -2.761424,0 -5,-2.238576 -5,-5 0,-2.761424 2.238576,-5 5,-5 2.761424,0 5,2.238576 5,5 z" />
      <path
         style="fill:none;stroke:#000000;stroke-width:1px;stroke-linecap:butt;stroke-linejoin:miter;stroke-opacity:1"
         d="m 45,18 0,4"
         id="path3648" />
      <path
         style="fill:none;stroke:#000000;stroke-width:1px;stroke-linecap:butt;stroke-linejoin:miter;stroke-opacity:1"
         d="m 43,20 4,0"
         id="path3650" />
    </g>
    <g
       id="use3652"
       transform="translate(440,114)">
      <path
         sodipodi:type="arc"
         style="fill:#b1a5a8;fill-opacity:1;fill-rule:evenodd;stroke:#0f0006;stroke-width:1;stroke-linecap:round;stroke-linejoin:miter;stroke-miterlimit:4;stroke-opacity:1;stroke-dasharray:none;stroke-dashoffset:0"
         id="path3656"
         sodipodi:cx="45"
         sodipodi:cy="20"
         sodipodi:rx="5"
         sodipodi:ry="5"
         d="m 50,20 c 0,2.761424 -2.238576,5 -5,5 -2.761424,0 -5,-2.238576 -5,-5 0,-2.761424 2.238576,-5 5,-5 2.761424,0 5,2.238576 5,5 z" />
      <path
         style="fill:none;stroke:#000000;stroke-width:1px;stroke-linecap:butt;stroke-linejoin:miter;stroke-opacity:1"
         d="m 45,18 0,4"
         id="path3658" />
      <path
         style="fill:none;stroke:#000000;stroke-width:1px;stroke-linecap:butt;stroke-linejoin:miter;stroke-opacity:1"
         d="m 43,20 4,0"
         id="path3660" />
    </g>
    <g
       id="use3662"
       transform="translate(-31,114)">
      <path
         sodipodi:type="arc"
         style="fill:#b1a5a8;fill-opacity:1;fill-rule:evenodd;stroke:#0f0006;stroke-width:1;stroke-linecap:round;stroke-linejoin:miter;stroke-miterlimit:4;stroke-opacity:1;stroke-dasharray:none;stroke-dashoffset:0"
         id="path3666"
         sodipodi:cx="45"
         sodipodi:cy="20"
         sodipodi:rx="5"
         sodipodi:ry="5"
         d="m 50,20 c 0,2.761424 -2.238576,5 -5,5 -2.761424,0 -5,-2.238576 -5,-5 0,-2.761424 2.238576,-5 5,-5 2.761424,0 5,2.238576 5,5 z" />
      <path
         style="fill:none;stroke:#000000;stroke-width:1px;stroke-linecap:butt;stroke-linejoin:miter;stroke-opacity:1"
         d="m 45,18 0,4"
         id="path3668" />
      <path
         style="fill:none;stroke:#000000;stroke-width:1px;stroke-linecap:butt;stroke-linejoin:miter;stroke-opacity:1"
         d="m 43,20 4,0"
         id="path3670" />
    </g>
    <path
       style="fill:none;stroke:#ce3762;stroke-width:1px;stroke-linecap:butt;stroke-linejoin:miter;stroke-opacity:1"
       d="M 25.051783,64.339064 70,20"
       id="path3672" />
    <path
       style="fill:none;stroke:#ce3762;stroke-width:1px;stroke-linecap:butt;stroke-linejoin:miter;stroke-opacity:1"
       d="m 375,145 10,-5 -5,-5 15,-5"
       id="path3684" />
    <path
       style="fill:none;stroke:#ce3762;stroke-width:1px;stroke-linecap:butt;stroke-linejoin:miter;stroke-opacity:1"
       d="m 495,55 -10,25 -5,-15 0,30 -10,-20 5,30"
       id="path3686" />
    <g
       transform="translate(-9.3056488,14.450794)"
       style="font-size:40px;font-style:normal;font-variant:normal;font-weight:normal;font-stretch:normal;line-height:125%;letter-spacing:0px;word-spacing:0px;fill:#ff6e49;fill-opacity:1;stroke:none;font-family:Droid Sans;-inkscape-font-specification:Droid Sans"
       id="text3707">
      <path
         d="m 249.91112,25.549206 3.59375,0 0,-20.3515627 -3.59375,0 0,20.3515627 M 264.30565,7.5804558 c -2e-5,-0.4947732 -0.0651,-0.8984187 -0.19531,-1.2109375 -0.13023,-0.3124805 -0.31252,-0.5533657 -0.54688,-0.7226563 -0.22137,-0.1692507 -0.48178,-0.2864381 -0.78125,-0.3515625 -0.28647,-0.065084 -0.57944,-0.097636 -0.8789,-0.097656 l -7.20704,0 0,2.3828125 4.80469,0 c 0.10416,1.79e-5 0.22135,0.00653 0.35156,0.019531 0.14322,0.013039 0.27343,0.065122 0.39063,0.15625 0.11718,0.078143 0.22134,0.1953301 0.3125,0.3515625 0.10415,0.1562673 0.15624,0.3841317 0.15625,0.6835938 l 0,1.1914062 3.59375,0 0,-2.4023437 m -4.80469,15.5664062 -4.80469,0 0,2.402344 7.20704,0 c 0.29946,0 0.59243,-0.03255 0.8789,-0.09766 0.29947,-0.0651 0.55988,-0.182292 0.78125,-0.351563 0.23436,-0.182291 0.41665,-0.423176 0.54688,-0.722656 0.13019,-0.312499 0.19529,-0.722655 0.19531,-1.230469 l 0,-2.363281 -3.59375,0 0,1.171875 c -1e-5,0.286461 -0.0521,0.514326 -0.15625,0.683594 -0.0912,0.156252 -0.19532,0.27344 -0.3125,0.351562 -0.1172,0.07813 -0.24741,0.1237 -0.39063,0.136719 -0.13021,0.01302 -0.2474,0.01953 -0.35156,0.01953"
         style="font-family:'It wasn\'t me';-inkscape-font-specification:'It wasn\'t me';fill:#ff6e49;fill-opacity:1"
         id="path3739" />
      <path
         d="m 266.94237,25.549206 3.59375,0 0,-20.3906252 -3.59375,0 0,20.3906252 m 4.78515,-14.003906 4.80469,0 c 0.10416,1.4e-5 0.22135,0.0065 0.35156,0.01953 0.14322,0.01304 0.27343,0.06512 0.39063,0.15625 0.11718,0.07814 0.22134,0.195326 0.3125,0.351562 0.10415,0.156264 0.15624,0.384128 0.15625,0.683594 l 0,12.792969 3.59375,0 0,-14.003906 c -2e-5,-0.507798 -0.0651,-0.911444 -0.19531,-1.210938 -0.13023,-0.312484 -0.31252,-0.5533696 -0.54688,-0.7226562 -0.22137,-0.1692547 -0.48178,-0.2864421 -0.78125,-0.3515625 -0.28647,-0.078109 -0.57944,-0.1171711 -0.8789,-0.1171875 l -7.20704,0 0,2.4023442"
         style="font-family:'It wasn\'t me';-inkscape-font-specification:'It wasn\'t me';fill:#ff6e49;fill-opacity:1"
         id="path3741" />
      <path
         d="m 296.9619,9.1429558 -3.59375,0 0,16.4062502 3.59375,0 0,-16.4062502 m -4.80469,14.0039062 -4.80469,0 c -0.10417,2e-6 -0.22136,-0.0065 -0.35156,-0.01953 -0.13021,-0.01302 -0.26042,-0.05859 -0.39062,-0.136719 -0.1172,-0.07812 -0.22136,-0.19531 -0.3125,-0.351562 -0.0912,-0.169268 -0.13673,-0.397133 -0.13672,-0.683594 l 0,-12.8125002 -3.59375,0 0,14.0039062 c 0,0.507814 0.0651,0.91797 0.19531,1.230469 0.13021,0.29948 0.30599,0.540365 0.52734,0.722656 0.23438,0.169271 0.49479,0.286459 0.78125,0.351563 0.29948,0.0651 0.59896,0.09766 0.89844,0.09766 l 7.1875,0 0,-2.402344"
         style="font-family:'It wasn\'t me';-inkscape-font-specification:'It wasn\'t me';fill:#ff6e49;fill-opacity:1"
         id="path3743" />
      <path
         d="m 298.19237,25.549206 3.59375,0 0,-16.4062502 -3.59375,0 0,16.4062502 m 4.78515,-14.003906 4.80469,0 c 0.10416,1.4e-5 0.22135,0.0065 0.35156,0.01953 0.14322,0.01304 0.27343,0.06512 0.39063,0.15625 0.11718,0.07814 0.22134,0.195326 0.3125,0.351562 0.10415,0.156264 0.15624,0.384128 0.15625,0.683594 l 0,12.792969 3.59375,0 0,-14.003906 c -2e-5,-0.507798 -0.0651,-0.911444 -0.19531,-1.210938 -0.13023,-0.312484 -0.31252,-0.5533696 -0.54688,-0.7226562 -0.22137,-0.1692547 -0.48178,-0.2864421 -0.78125,-0.3515625 -0.28647,-0.078109 -0.57944,-0.1171711 -0.8789,-0.1171875 l -7.20704,0 0,2.4023442"
         style="font-family:'It wasn\'t me';-inkscape-font-specification:'It wasn\'t me';fill:#ff6e49;fill-opacity:1"
         id="path3745" />
      <path
         d="m 321.41502,14.474987 -2.8125,0 0,2.402344 4.80469,0 c 0.10416,8e-6 0.22135,0.0065 0.35156,0.01953 0.14322,0.01303 0.27343,0.0586 0.39063,0.136719 0.11718,0.07813 0.22134,0.195321 0.3125,0.351562 0.10415,0.156258 0.15624,0.384123 0.15625,0.683594 l 0,7.480469 3.59375,0 0,-8.671875 c -2e-5,-0.507804 -0.0651,-0.911449 -0.19531,-1.210938 -0.13023,-0.31249 -0.31252,-0.553375 -0.54688,-0.722656 -0.22137,-0.182281 -0.48178,-0.305979 -0.78125,-0.371094 -0.28647,-0.06509 -0.57944,-0.09764 -0.8789,-0.09766 l -0.80079,0 0,-2.636719 0,0.03906 0,-2.7343752 -3.59375,0 0,5.3320312 m -7.59765,11.074219 3.59375,0 0,-20.3906252 -3.59375,0 0,20.3906252"
         style="font-family:'It wasn\'t me';-inkscape-font-specification:'It wasn\'t me';fill:#ff6e49;fill-opacity:1"
         id="path3747" />
      <path
         d="m 331.84471,25.549206 9.58985,0 c 0.29946,0 0.59243,-0.03255 0.8789,-0.09766 0.29947,-0.0651 0.55988,-0.182292 0.78125,-0.351563 0.23436,-0.182291 0.41665,-0.423176 0.54688,-0.722656 0.13019,-0.312499 0.19529,-0.722655 0.19531,-1.230469 l 0,-4.726562 c -2e-5,-0.494785 -0.0651,-0.89843 -0.19531,-1.210938 -0.13023,-0.312491 -0.31252,-0.553376 -0.54688,-0.722656 -0.22137,-0.169262 -0.48178,-0.286449 -0.78125,-0.351563 -0.28647,-0.06509 -0.57944,-0.09765 -0.8789,-0.09766 l -7.20704,0 c -0.10417,10e-6 -0.22136,-0.0065 -0.35156,-0.01953 -0.13021,-0.01301 -0.26042,-0.05858 -0.39062,-0.136719 -0.1172,-0.09114 -0.22136,-0.214834 -0.3125,-0.371094 -0.0912,-0.15624 -0.13673,-0.384104 -0.13672,-0.683593 l 0,-5.6835942 -3.59375,0 0,6.8945312 c 0,0.494801 0.0651,0.898446 0.19531,1.210938 0.13021,0.312508 0.30599,0.553393 0.52734,0.722656 0.23438,0.169278 0.49479,0.286465 0.78125,0.351562 0.29948,0.06511 0.59896,0.09766 0.89844,0.09766 l 7.1875,0 c 0.10416,7e-6 0.22135,0.01303 0.35156,0.03906 0.14322,0.01303 0.27343,0.0586 0.39063,0.136719 0.11718,0.07813 0.22134,0.195319 0.3125,0.351562 0.10415,0.156257 0.15624,0.384121 0.15625,0.683594 l 0,2.324219 c -1e-5,0.286461 -0.0521,0.514326 -0.15625,0.683594 -0.0912,0.156252 -0.19532,0.27344 -0.3125,0.351562 -0.1172,0.07813 -0.24741,0.1237 -0.39063,0.136719 -0.13021,0.01302 -0.2474,0.01953 -0.35156,0.01953 l -4.80469,0 c -0.10417,2e-6 -0.22136,-0.0065 -0.35156,-0.01953 -0.13021,-0.01302 -0.26042,-0.05859 -0.39062,-0.136719 -0.1172,-0.07812 -0.22136,-0.19531 -0.3125,-0.351562 -0.0912,-0.169268 -0.13673,-0.397133 -0.13672,-0.683594 l 0,-0.605469 -3.59375,0 0,1.796875 c 0,0.507814 0.0651,0.91797 0.19531,1.230469 0.13021,0.29948 0.30599,0.540365 0.52734,0.722656 0.23438,0.169271 0.49479,0.286459 0.78125,0.351563 0.29948,0.0651 0.59896,0.09766 0.89844,0.09766 m 2.5586,-14.003906 4.6289,0 c 0.10416,1.4e-5 0.22135,0.0065 0.35156,0.01953 0.14322,0.01304 0.27343,0.06512 0.39063,0.15625 0.11718,0.07814 0.22134,0.195326 0.3125,0.351562 0.10415,0.156264 0.15624,0.384128 0.15625,0.683594 l 0,1.679688 3.59375,0 0,-2.890625 c -2e-5,-0.507798 -0.0651,-0.911444 -0.19531,-1.210938 -0.13023,-0.312484 -0.31252,-0.5533696 -0.54688,-0.7226562 -0.22137,-0.1692547 -0.48178,-0.2864421 -0.78125,-0.3515625 -0.28647,-0.078109 -0.57944,-0.1171711 -0.8789,-0.1171875 l -7.20704,0 0,2.4023442 0.17579,0"
         style="font-family:'It wasn\'t me';-inkscape-font-specification:'It wasn\'t me';fill:#ff6e49;fill-opacity:1"
         id="path3749" />
      <path
         d="m 351.55174,25.549206 3.59375,0 0,-20.3515627 -3.59375,0 0,20.3515627 M 365.94627,7.5804558 c -1e-5,-0.4947732 -0.0651,-0.8984187 -0.19531,-1.2109375 -0.13022,-0.3124805 -0.31251,-0.5533657 -0.54687,-0.7226563 -0.22137,-0.1692507 -0.48179,-0.2864381 -0.78125,-0.3515625 -0.28648,-0.065084 -0.57944,-0.097636 -0.87891,-0.097656 l -7.20703,0 0,2.3828125 4.80469,0 c 0.10415,1.79e-5 0.22134,0.00653 0.35156,0.019531 0.14322,0.013039 0.27343,0.065122 0.39062,0.15625 0.11718,0.078143 0.22135,0.1953301 0.3125,0.3515625 0.10416,0.1562673 0.15624,0.3841317 0.15625,0.6835938 l 0,1.1914062 3.59375,0 0,-2.4023437 m -4.80468,15.5664062 -4.80469,0 0,2.402344 7.20703,0 c 0.29947,0 0.59243,-0.03255 0.87891,-0.09766 0.29946,-0.0651 0.55988,-0.182292 0.78125,-0.351563 0.23436,-0.182291 0.41665,-0.423176 0.54687,-0.722656 0.13019,-0.312499 0.1953,-0.722655 0.19531,-1.230469 l 0,-2.363281 -3.59375,0 0,1.171875 c -1e-5,0.286461 -0.0521,0.514326 -0.15625,0.683594 -0.0912,0.156252 -0.19532,0.27344 -0.3125,0.351562 -0.11719,0.07813 -0.2474,0.1237 -0.39062,0.136719 -0.13022,0.01302 -0.24741,0.01953 -0.35156,0.01953"
         style="font-family:'It wasn\'t me';-inkscape-font-specification:'It wasn\'t me';fill:#ff6e49;fill-opacity:1"
         id="path3751" />
      <path
         d="m 371.9619,11.5453 4.80469,0 c 0.10415,1.4e-5 0.22134,0.0065 0.35156,0.01953 0.14322,0.01304 0.27343,0.06512 0.39062,0.15625 0.11718,0.07814 0.22135,0.195326 0.3125,0.351562 0.10416,0.156264 0.15624,0.384128 0.15625,0.683594 l 0,12.792969 3.59375,0 0,-14.003906 c -1e-5,-0.507798 -0.0651,-0.911444 -0.19531,-1.210938 -0.13022,-0.312484 -0.31251,-0.5533696 -0.54687,-0.7226562 -0.22137,-0.1692547 -0.48179,-0.2864421 -0.78125,-0.3515625 -0.28648,-0.078109 -0.57944,-0.1171711 -0.87891,-0.1171875 l -7.20703,0 0,2.4023442 m 4.80469,11.601562 -4.80469,0 c -0.10417,2e-6 -0.22136,-0.0065 -0.35156,-0.01953 -0.13022,-0.01302 -0.26043,-0.05859 -0.39063,-0.136719 -0.11719,-0.07812 -0.22136,-0.19531 -0.3125,-0.351562 -0.0912,-0.169268 -0.13672,-0.397133 -0.13672,-0.683594 l 0,-12.8125002 -3.59375,0 0,14.0039062 c 0,0.507814 0.0651,0.91797 0.19532,1.230469 0.1302,0.29948 0.30598,0.540365 0.52734,0.722656 0.23437,0.169271 0.49479,0.286459 0.78125,0.351563 0.29948,0.0651 0.59895,0.09766 0.89844,0.09766 l 7.1875,0 0,-2.402344"
         style="font-family:'It wasn\'t me';-inkscape-font-specification:'It wasn\'t me';fill:#ff6e49;fill-opacity:1"
         id="path3753" />
      <path
         d="m 382.80174,25.549206 3.59375,0 0,-16.4062502 -3.59375,0 0,16.4062502 m 4.78516,-14.003906 4.80469,0 c 0.10415,1.4e-5 0.22134,0.0065 0.35156,0.01953 0.14322,0.01304 0.27343,0.06512 0.39062,0.15625 0.11718,0.07814 0.22135,0.195326 0.3125,0.351562 0.10416,0.156264 0.15624,0.384128 0.15625,0.683594 l 0,12.792969 3.59375,0 0,-14.003906 c -1e-5,-0.507798 -0.0651,-0.911444 -0.19531,-1.210938 -0.13022,-0.312484 -0.31251,-0.5533696 -0.54687,-0.7226562 -0.22137,-0.1692547 -0.48179,-0.2864421 -0.78125,-0.3515625 -0.28648,-0.078109 -0.57944,-0.1171711 -0.87891,-0.1171875 l -7.20703,0 0,2.4023442"
         style="font-family:'It wasn\'t me';-inkscape-font-specification:'It wasn\'t me';fill:#ff6e49;fill-opacity:1"
         id="path3755" />
      <path
         d="m 405.61424,21.955456 0,-16.7968752 -3.59375,0 0,3.984375 -3.59375,0 0,2.4023442 3.59375,0 0,11.601562 c 0,0.507814 0.0651,0.91797 0.19532,1.230469 0.14322,0.29948 0.32551,0.540365 0.54687,0.722656 0.22135,0.169271 0.47526,0.286459 0.76172,0.351563 0.29947,0.0651 0.59895,0.09766 0.89844,0.09766 l 3.51562,0 0,-2.402344 -1.11328,0 c -0.10418,2e-6 -0.22787,-0.0065 -0.37109,-0.01953 -0.13022,-0.01302 -0.25392,-0.05859 -0.3711,-0.136719 -0.11719,-0.07812 -0.22787,-0.19531 -0.33203,-0.351562 -0.0912,-0.169268 -0.13673,-0.397133 -0.13672,-0.683594 m 1.21094,-10.410156 2.40234,0 0,-2.4023442 -2.40234,0 0,2.4023442"
         style="font-family:'It wasn\'t me';-inkscape-font-specification:'It wasn\'t me';fill:#ff6e49;fill-opacity:1"
         id="path3757" />
      <path
         d="m 410.45799,25.549206 3.59375,0 0,-16.4062502 -3.59375,0 0,16.4062502 m 4.78516,-14.003906 4.80469,0 c 0.10415,1.4e-5 0.22134,0.0065 0.35156,0.01953 0.14322,0.01304 0.27343,0.06512 0.39062,0.15625 0.11718,0.07814 0.22135,0.195326 0.3125,0.351562 0.10416,0.156264 0.15624,0.384128 0.15625,0.683594 l 0,1.71875 3.59375,0 0,-2.929687 c -1e-5,-0.507798 -0.0651,-0.911444 -0.19531,-1.210938 -0.13022,-0.312484 -0.31251,-0.5533696 -0.54687,-0.7226562 -0.22137,-0.1692547 -0.48179,-0.2864421 -0.78125,-0.3515625 -0.28648,-0.078109 -0.57944,-0.1171711 -0.87891,-0.1171875 l -7.20703,0 0,2.4023442"
         style="font-family:'It wasn\'t me';-inkscape-font-specification:'It wasn\'t me';fill:#ff6e49;fill-opacity:1"
         id="path3759" />
      <path
         d="m 430.86815,11.5453 4.80469,0 c 0.10415,1.4e-5 0.22134,0.0065 0.35156,0.01953 0.14322,0.01304 0.27343,0.06512 0.39062,0.15625 0.11718,0.07814 0.22135,0.195326 0.3125,0.351562 0.10416,0.156264 0.15624,0.384128 0.15625,0.683594 l 0,12.792969 3.59375,0 0,-14.003906 c -1e-5,-0.507798 -0.0651,-0.911444 -0.19531,-1.210938 -0.13022,-0.312484 -0.31251,-0.5533696 -0.54687,-0.7226562 -0.22137,-0.1692547 -0.48179,-0.2864421 -0.78125,-0.3515625 -0.28648,-0.078109 -0.57944,-0.1171711 -0.87891,-0.1171875 l -7.20703,0 0,2.4023442 m 4.80469,11.601562 -4.80469,0 c -0.10417,2e-6 -0.22136,-0.0065 -0.35156,-0.01953 -0.13022,-0.01302 -0.26043,-0.05859 -0.39063,-0.136719 -0.11719,-0.07812 -0.22136,-0.19531 -0.3125,-0.351562 -0.0912,-0.169268 -0.13672,-0.397133 -0.13672,-0.683594 l 0,-12.8125002 -3.59375,0 0,14.0039062 c 0,0.507814 0.0651,0.91797 0.19532,1.230469 0.1302,0.29948 0.30598,0.540365 0.52734,0.722656 0.23437,0.169271 0.49479,0.286459 0.78125,0.351563 0.29948,0.0651 0.59895,0.09766 0.89844,0.09766 l 7.1875,0 0,-2.402344"
         style="font-family:'It wasn\'t me';-inkscape-font-specification:'It wasn\'t me';fill:#ff6e49;fill-opacity:1"
         id="path3761" />
      <path
         d="m 442.56737,8.7523308 c -10e-6,-0.2994621 -0.0456,-0.5273264 -0.13672,-0.6835938 -0.0912,-0.1562323 -0.19532,-0.2734197 -0.3125,-0.3515625 -0.11719,-0.091128 -0.2474,-0.1432112 -0.39063,-0.15625 -0.13021,-0.013003 -0.24739,-0.019513 -0.35156,-0.019531 l -0.99609,0 0,-2.3828125 3.39844,0 c 0.28645,2.04e-5 0.57291,0.032572 0.85937,0.097656 0.29947,0.065124 0.55989,0.1823118 0.78125,0.3515625 0.23437,0.1692906 0.41666,0.4101758 0.54688,0.7226563 0.14322,0.2994981 0.21483,0.7031435 0.21484,1.2109375 l 0,18.0078127 -3.61328,0 0,-16.7968752"
         style="font-family:'It wasn\'t me';-inkscape-font-specification:'It wasn\'t me';fill:#ff6e49;fill-opacity:1"
         id="path3763" />
    </g>
    <path
       style="fill:none;stroke:#ff6e49;stroke-width:1.89999999999999991;stroke-linecap:butt;stroke-linejoin:miter;stroke-opacity:1;stroke-miterlimit:4;stroke-dasharray:none"
       d="M 214.5564,8.9827028 215,25"
       id="path6010" />
    <path
       style="fill:none;stroke:#ff6e49;stroke-width:1.89999999999999991;stroke-linecap:butt;stroke-linejoin:miter;stroke-opacity:1;stroke-miterlimit:4;stroke-dasharray:none"
       d="m 215,35 0,15"
       id="path6012" />
    <path
       style="fill:none;stroke:#ff6e49;stroke-width:1.89999999999999991;stroke-linecap:butt;stroke-linejoin:miter;stroke-opacity:1;stroke-miterlimit:4;stroke-dasharray:none"
       d="m 215,60 0,15"
       id="path6014" />
    <path
       style="fill:none;stroke:#ff6e49;stroke-width:1.89999999999999991;stroke-linecap:butt;stroke-linejoin:miter;stroke-opacity:1;stroke-miterlimit:4;stroke-dasharray:none"
       d="m 215,85 0,15"
       id="path6016" />
    <path
       style="fill:none;stroke:#ff6e49;stroke-width:1.89999999999999991;stroke-linecap:butt;stroke-linejoin:miter;stroke-opacity:1;stroke-miterlimit:4;stroke-dasharray:none"
       d="m 215,110 0,15"
       id="path6018" />
    <path
       style="fill:none;stroke:#ff6e49;stroke-width:1.89999999999999991;stroke-linecap:butt;stroke-linejoin:miter;stroke-opacity:1;stroke-miterlimit:4;stroke-dasharray:none"
       d="M 215.36453,135.85786 215,145"
       id="path6020" />
  </g>
</svg>
