<?xml version="1.0" encoding="UTF-8" standalone="no"?>
<!-- Created with Inkscape (http://www.inkscape.org/) -->

<svg
   xmlns:dc="http://purl.org/dc/elements/1.1/"
   xmlns:cc="http://creativecommons.org/ns#"
   xmlns:rdf="http://www.w3.org/1999/02/22-rdf-syntax-ns#"
   xmlns:svg="http://www.w3.org/2000/svg"
   xmlns="http://www.w3.org/2000/svg"
   xmlns:sodipodi="http://sodipodi.sourceforge.net/DTD/sodipodi-0.dtd"
   xmlns:inkscape="http://www.inkscape.org/namespaces/inkscape"
   width="500px"
   height="150px"
   id="svg2816"
   version="1.1"
   inkscape:version="0.47 r22583"
   sodipodi:docname="control_board.svg">
  <defs
     id="defs2818">
    <inkscape:perspective
       sodipodi:type="inkscape:persp3d"
       inkscape:vp_x="0 : 24 : 1"
       inkscape:vp_y="0 : 1000 : 0"
       inkscape:vp_z="48 : 24 : 1"
       inkscape:persp3d-origin="24 : 16 : 1"
       id="perspective2824" />
  </defs>
  <sodipodi:namedview
     id="base"
     pagecolor="#ffffff"
     bordercolor="#666666"
     borderopacity="1.0"
     inkscape:pageopacity="0.0"
     inkscape:pageshadow="2"
     inkscape:zoom="2.4748737"
     inkscape:cx="321.02426"
     inkscape:cy="74.005182"
     inkscape:current-layer="layer1"
     showgrid="true"
     inkscape:grid-bbox="true"
     inkscape:document-units="px"
     inkscape:window-width="1388"
     inkscape:window-height="882"
     inkscape:window-x="1438"
     inkscape:window-y="-3"
     inkscape:window-maximized="1">
    <inkscape:grid
       type="xygrid"
       id="grid2849" />
  </sodipodi:namedview>
  <metadata
     id="metadata2821">
    <rdf:RDF>
      <cc:Work
         rdf:about="">
        <dc:format>image/svg+xml</dc:format>
        <dc:type
           rdf:resource="http://purl.org/dc/dcmitype/StillImage" />
        <dc:title />
      </cc:Work>
    </rdf:RDF>
  </metadata>
  <g
     id="layer1"
     inkscape:label="Layer 1"
     inkscape:groupmode="layer">
    <path
       style="fill:#81273f;stroke:#ce3762;stroke-width:1px;stroke-linecap:butt;stroke-linejoin:miter;stroke-opacity:1;fill-opacity:1"
       d="M 5,145 5,40 40,10 l 420,0 35,30 0,105 -1.28571,1.57143 L 5,145 z"
       id="path2851"
       sodipodi:nodetypes="cccccc" />
    <g
       id="g3637">
      <path
         d="m 50,20 a 5,5 0 1 1 -10,0 5,5 0 1 1 10,0 z"
         sodipodi:ry="5"
         sodipodi:rx="5"
         sodipodi:cy="20"
         sodipodi:cx="45"
         id="path3629"
         style="fill:#b1a5a8;fill-opacity:1;fill-rule:evenodd;stroke:#0f0006;stroke-width:1;stroke-linecap:round;stroke-linejoin:miter;stroke-miterlimit:4;stroke-opacity:1;stroke-dasharray:none;stroke-dashoffset:0"
         sodipodi:type="arc" />
      <path
         id="path3631"
         d="m 45,18 0,4"
         style="fill:none;stroke:#000000;stroke-width:1px;stroke-linecap:butt;stroke-linejoin:miter;stroke-opacity:1" />
      <path
         id="path3633"
         d="m 43,20 4,0"
         style="fill:none;stroke:#000000;stroke-width:1px;stroke-linecap:butt;stroke-linejoin:miter;stroke-opacity:1" />
    </g>
    <g
       id="use3642"
       transform="translate(410,0)">
      <path
         sodipodi:type="arc"
         style="fill:#b1a5a8;fill-opacity:1;fill-rule:evenodd;stroke:#0f0006;stroke-width:1;stroke-linecap:round;stroke-linejoin:miter;stroke-miterlimit:4;stroke-opacity:1;stroke-dasharray:none;stroke-dashoffset:0"
         id="path3646"
         sodipodi:cx="45"
         sodipodi:cy="20"
         sodipodi:rx="5"
         sodipodi:ry="5"
         d="m 50,20 c 0,2.761424 -2.238576,5 -5,5 -2.761424,0 -5,-2.238576 -5,-5 0,-2.761424 2.238576,-5 5,-5 2.761424,0 5,2.238576 5,5 z" />
      <path
         style="fill:none;stroke:#000000;stroke-width:1px;stroke-linecap:butt;stroke-linejoin:miter;stroke-opacity:1"
         d="m 45,18 0,4"
         id="path3648" />
      <path
         style="fill:none;stroke:#000000;stroke-width:1px;stroke-linecap:butt;stroke-linejoin:miter;stroke-opacity:1"
         d="m 43,20 4,0"
         id="path3650" />
    </g>
    <g
       id="use3652"
       transform="translate(440,114)">
      <path
         sodipodi:type="arc"
         style="fill:#b1a5a8;fill-opacity:1;fill-rule:evenodd;stroke:#0f0006;stroke-width:1;stroke-linecap:round;stroke-linejoin:miter;stroke-miterlimit:4;stroke-opacity:1;stroke-dasharray:none;stroke-dashoffset:0"
         id="path3656"
         sodipodi:cx="45"
         sodipodi:cy="20"
         sodipodi:rx="5"
         sodipodi:ry="5"
         d="m 50,20 c 0,2.761424 -2.238576,5 -5,5 -2.761424,0 -5,-2.238576 -5,-5 0,-2.761424 2.238576,-5 5,-5 2.761424,0 5,2.238576 5,5 z" />
      <path
         style="fill:none;stroke:#000000;stroke-width:1px;stroke-linecap:butt;stroke-linejoin:miter;stroke-opacity:1"
         d="m 45,18 0,4"
         id="path3658" />
      <path
         style="fill:none;stroke:#000000;stroke-width:1px;stroke-linecap:butt;stroke-linejoin:miter;stroke-opacity:1"
         d="m 43,20 4,0"
         id="path3660" />
    </g>
    <g
       id="use3662"
       transform="translate(-31,114)">
      <path
         sodipodi:type="arc"
         style="fill:#b1a5a8;fill-opacity:1;fill-rule:evenodd;stroke:#0f0006;stroke-width:1;stroke-linecap:round;stroke-linejoin:miter;stroke-miterlimit:4;stroke-opacity:1;stroke-dasharray:none;stroke-dashoffset:0"
         id="path3666"
         sodipodi:cx="45"
         sodipodi:cy="20"
         sodipodi:rx="5"
         sodipodi:ry="5"
         d="m 50,20 c 0,2.761424 -2.238576,5 -5,5 -2.761424,0 -5,-2.238576 -5,-5 0,-2.761424 2.238576,-5 5,-5 2.761424,0 5,2.238576 5,5 z" />
      <path
         style="fill:none;stroke:#000000;stroke-width:1px;stroke-linecap:butt;stroke-linejoin:miter;stroke-opacity:1"
         d="m 45,18 0,4"
         id="path3668" />
      <path
         style="fill:none;stroke:#000000;stroke-width:1px;stroke-linecap:butt;stroke-linejoin:miter;stroke-opacity:1"
         d="m 43,20 4,0"
         id="path3670" />
    </g>
    <path
       style="fill:none;stroke:#ce3762;stroke-width:1px;stroke-linecap:butt;stroke-linejoin:miter;stroke-opacity:1"
       d="M 25.051783,64.339064 70,20"
       id="path3672" />
    <path
       style="fill:none;stroke:#ce3762;stroke-width:1px;stroke-linecap:butt;stroke-linejoin:miter;stroke-opacity:1"
       d="m 375,145 10,-5 -5,-5 15,-5"
       id="path3684" />
    <path
       style="fill:none;stroke:#ce3762;stroke-width:1px;stroke-linecap:butt;stroke-linejoin:miter;stroke-opacity:1"
       d="m 495,55 -10,25 -5,-15 0,30 -10,-20 5,30"
       id="path3686" />
  </g>
</svg>
