<?xml version="1.0" encoding="UTF-8" standalone="no"?>
<!-- Created with Inkscape (http://www.inkscape.org/) -->

<svg
   xmlns:dc="http://purl.org/dc/elements/1.1/"
   xmlns:cc="http://creativecommons.org/ns#"
   xmlns:rdf="http://www.w3.org/1999/02/22-rdf-syntax-ns#"
   xmlns:svg="http://www.w3.org/2000/svg"
   xmlns="http://www.w3.org/2000/svg"
   xmlns:sodipodi="http://sodipodi.sourceforge.net/DTD/sodipodi-0.dtd"
   xmlns:inkscape="http://www.inkscape.org/namespaces/inkscape"
   width="300px"
   height="100px"
   id="svg3765"
   version="1.1"
   inkscape:version="0.47 r22583"
   sodipodi:docname="drop_button_off.svg">
  <defs
     id="defs3767">
    <inkscape:perspective
       sodipodi:type="inkscape:persp3d"
       inkscape:vp_x="0 : 526.18109 : 1"
       inkscape:vp_y="0 : 1000 : 0"
       inkscape:vp_z="744.09448 : 526.18109 : 1"
       inkscape:persp3d-origin="372.04724 : 350.78739 : 1"
       id="perspective3773" />
  </defs>
  <sodipodi:namedview
     id="base"
     pagecolor="#ffffff"
     bordercolor="#666666"
     borderopacity="1.0"
     inkscape:pageopacity="0.0"
     inkscape:pageshadow="2"
     inkscape:zoom="1.979899"
     inkscape:cx="-10.536551"
     inkscape:cy="-5.9213819"
     inkscape:document-units="px"
     inkscape:current-layer="layer1"
     showgrid="true"
     inkscape:window-width="1388"
     inkscape:window-height="882"
     inkscape:window-x="1438"
     inkscape:window-y="-3"
     inkscape:window-maximized="1">
    <inkscape:grid
       type="xygrid"
       id="grid3802" />
  </sodipodi:namedview>
  <metadata
     id="metadata3770">
    <rdf:RDF>
      <cc:Work
         rdf:about="">
        <dc:format>image/svg+xml</dc:format>
        <dc:type
           rdf:resource="http://purl.org/dc/dcmitype/StillImage" />
        <dc:title></dc:title>
      </cc:Work>
    </rdf:RDF>
  </metadata>
  <g
     inkscape:label="Calque 1"
     inkscape:groupmode="layer"
     id="layer1">
    <path
       style="fill:#685f62;stroke:#000000;stroke-width:1px;stroke-linecap:butt;stroke-linejoin:miter;stroke-opacity:1;fill-opacity:1"
       d="m 10,10 280,0 0,80 -280,0 0,-80 z"
       id="path3804" />
    <g
       transform="translate(102.95179,62.883271)"
       style="font-size:40px;font-style:normal;font-variant:normal;font-weight:normal;font-stretch:normal;line-height:125%;letter-spacing:0px;word-spacing:0px;fill:#b1b0b0;fill-opacity:1;stroke:none;font-family:Droid Sans;-inkscape-font-specification:Droid Sans"
       id="text8301">
      <path
         d="m 0.04821014,-49.055146 -10.78125014,0 0,11.953125 -18.046875,0 0,7.207031 18.046875,0 0,42.011719 10.78125014,0 0,-61.171875 M -14.365852,4.9096975 l -14.414063,0 c -0.312516,7.2e-6 -0.664078,-0.019524 -1.054687,-0.058594 -0.39064,-0.039055 -0.781265,-0.1757738 -1.171875,-0.4101563 -0.351576,-0.2343671 -0.664076,-0.5859292 -0.9375,-1.0546875 -0.273451,-0.5078032 -0.410169,-1.1913963 -0.410157,-2.0507812 l 0,-38.4374998 -10.78125,0 0,42.0117185 c -10e-7,1.5234432 0.195311,2.7539107 0.585938,3.6914063 0.390622,0.8984401 0.917965,1.6210952 1.582031,2.1679692 0.70312,0.507813 1.48437,0.859375 2.34375,1.054687 0.89843,0.195313 1.796867,0.292969 2.695313,0.292969 l 21.5625,0 0,-7.2070315"
         style="font-size:120px;font-family:'It wasn\'t me';-inkscape-font-specification:'It wasn\'t me';fill:#b1b0b0;fill-opacity:1"
         id="path8306" />
      <path
         d="m 3.7396164,12.116729 10.7812496,0 0,-49.21875 -10.7812496,0 0,49.21875 m 14.3554686,-42.011719 14.414063,0 c 0.312469,4.2e-5 0.664031,0.01957 1.054687,0.05859 0.429656,0.0391 0.82028,0.195354 1.171875,0.46875 0.351529,0.234416 0.664029,0.585978 0.9375,1.054687 0.312466,0.46879 0.468716,1.152383 0.46875,2.050782 l 0,5.15625 10.78125,0 0,-8.789063 c -4.5e-5,-1.523394 -0.195357,-2.73433 -0.585937,-3.632812 -0.390669,-0.937454 -0.937544,-1.660109 -1.640625,-2.167969 -0.664105,-0.507764 -1.445354,-0.859327 -2.34375,-1.054688 -0.859415,-0.234326 -1.73832,-0.351513 -2.636719,-0.351562 l -21.621094,0 0,7.207031"
         style="font-size:120px;font-family:'It wasn\'t me';-inkscape-font-specification:'It wasn\'t me';fill:#b1b0b0;fill-opacity:1"
         id="path8308" />
      <path
         d="m 64.970085,-29.89499 14.414063,0 c 0.312469,4.2e-5 0.664031,0.01957 1.054687,0.05859 0.429656,0.0391 0.82028,0.195354 1.171875,0.46875 0.351529,0.234416 0.664029,0.585978 0.9375,1.054687 0.312466,0.46879 0.468716,1.152383 0.46875,2.050782 l 0,38.378906 10.78125,0 0,-42.011719 c -4.5e-5,-1.523394 -0.195357,-2.73433 -0.585937,-3.632812 -0.390669,-0.937454 -0.937544,-1.660109 -1.640625,-2.167969 -0.664105,-0.507764 -1.445354,-0.859327 -2.34375,-1.054688 -0.859415,-0.234326 -1.73832,-0.351513 -2.636719,-0.351562 l -21.621094,0 0,7.207031 m 14.414063,34.8046875 -14.414063,0 c -0.312516,7.2e-6 -0.664078,-0.019524 -1.054687,-0.058594 C 63.524758,4.8120486 63.134133,4.67533 62.743523,4.4409475 62.391947,4.2065804 62.079447,3.8550183 61.806023,3.38626 61.532572,2.8784568 61.395854,2.1948637 61.395866,1.3354788 l 0,-38.4374998 -10.78125,0 0,42.0117185 c -10e-7,1.5234432 0.195311,2.7539107 0.585938,3.6914063 0.390622,0.8984401 0.917965,1.6210952 1.582031,2.1679692 0.70312,0.507813 1.48437,0.859375 2.34375,1.054687 0.89843,0.195313 1.796867,0.292969 2.695313,0.292969 l 21.5625,0 0,-7.2070315"
         style="font-size:120px;font-family:'It wasn\'t me';-inkscape-font-specification:'It wasn\'t me';fill:#b1b0b0;fill-opacity:1"
         id="path8310" />
      <path
         d="m 126.25915,-29.89499 -14.41406,0 c -0.62502,4.2e-5 -1.38674,0.175823 -2.28516,0.527344 -0.85939,0.312541 -1.28908,1.347696 -1.28906,3.105469 l 0,51.5625 -10.781254,0 0,-55.195313 c -10e-7,-2.968705 0.722654,-4.902297 2.167969,-5.800781 1.484365,-0.937451 3.164055,-1.406201 5.039065,-1.40625 l 21.5625,0 0,7.207031 m -14.41406,34.8046875 14.41406,0 c 0.31247,7.2e-6 0.66403,-0.019524 1.05469,-0.058594 0.42965,-0.039055 0.82028,-0.1757738 1.17187,-0.4101563 0.35153,-0.2343671 0.66403,-0.5859292 0.9375,-1.0546875 0.31247,-0.5078032 0.46872,-1.1913963 0.46875,-2.0507812 l 0,-38.4374998 10.78125,0 0,42.0117185 c -4e-5,1.5234432 -0.19536,2.7539107 -0.58594,3.6914063 -0.39067,0.8984401 -0.93754,1.6210952 -1.64062,2.1679692 -0.66411,0.507813 -1.44536,0.859375 -2.34375,1.054687 -0.85942,0.195313 -1.73832,0.292969 -2.63672,0.292969 l -21.62109,0 0,-7.2070315"
         style="font-size:120px;font-family:'It wasn\'t me';-inkscape-font-specification:'It wasn\'t me';fill:#b1b0b0;fill-opacity:1"
         id="path8312" />
    </g>
  </g>
</svg>
