<?xml version="1.0" encoding="UTF-8" standalone="no"?>
<!-- Created with Inkscape (http://www.inkscape.org/) -->

<svg
   xmlns:dc="http://purl.org/dc/elements/1.1/"
   xmlns:cc="http://creativecommons.org/ns#"
   xmlns:rdf="http://www.w3.org/1999/02/22-rdf-syntax-ns#"
   xmlns:svg="http://www.w3.org/2000/svg"
   xmlns="http://www.w3.org/2000/svg"
   xmlns:sodipodi="http://sodipodi.sourceforge.net/DTD/sodipodi-0.dtd"
   xmlns:inkscape="http://www.inkscape.org/namespaces/inkscape"
   width="300px"
   height="100px"
   id="svg3765"
   version="1.1"
   inkscape:version="0.47 r22583"
   sodipodi:docname="fork_button_on.svg">
  <defs
     id="defs3767">
    <inkscape:perspective
       sodipodi:type="inkscape:persp3d"
       inkscape:vp_x="0 : 526.18109 : 1"
       inkscape:vp_y="0 : 1000 : 0"
       inkscape:vp_z="744.09448 : 526.18109 : 1"
       inkscape:persp3d-origin="372.04724 : 350.78739 : 1"
       id="perspective3773" />
    <filter
       inkscape:collect="always"
       id="filter7753">
      <feGaussianBlur
         inkscape:collect="always"
         stdDeviation="0.9"
         id="feGaussianBlur7755" />
    </filter>
  </defs>
  <sodipodi:namedview
     id="base"
     pagecolor="#ffffff"
     bordercolor="#666666"
     borderopacity="1.0"
     inkscape:pageopacity="0.0"
     inkscape:pageshadow="2"
     inkscape:zoom="1.979899"
     inkscape:cx="-10.536551"
     inkscape:cy="-5.9213819"
     inkscape:document-units="px"
     inkscape:current-layer="layer1"
     showgrid="true"
     inkscape:window-width="1388"
     inkscape:window-height="882"
     inkscape:window-x="1438"
     inkscape:window-y="-3"
     inkscape:window-maximized="1">
    <inkscape:grid
       type="xygrid"
       id="grid3802" />
  </sodipodi:namedview>
  <metadata
     id="metadata3770">
    <rdf:RDF>
      <cc:Work
         rdf:about="">
        <dc:format>image/svg+xml</dc:format>
        <dc:type
           rdf:resource="http://purl.org/dc/dcmitype/StillImage" />
        <dc:title></dc:title>
      </cc:Work>
    </rdf:RDF>
  </metadata>
  <g
     inkscape:label="Calque 1"
     inkscape:groupmode="layer"
     id="layer1">
    <path
       style="fill:#685f62;stroke:#41fd69;stroke-width:3.89999999999999991;stroke-linecap:butt;stroke-linejoin:miter;stroke-opacity:1;fill-opacity:1;stroke-miterlimit:4;stroke-dasharray:none;filter:url(#filter7753)"
       d="m 10,10 280,0 0,80 -280,0 0,-80 z"
       id="path3804" />
    <g
       transform="translate(13.512676,54.225906)"
       style="font-size:40px;font-style:normal;font-variant:normal;font-weight:normal;font-stretch:normal;line-height:125%;letter-spacing:0px;word-spacing:0px;fill:#41fd69;fill-opacity:1;stroke:none;font-family:Droid Sans;-inkscape-font-specification:Droid Sans"
       id="text6057">
      <path
         d="m 62.134785,-26.81575 c -1.4e-5,-1.904241 0.46548,-3.025659 1.396484,-3.364258 0.973291,-0.380801 1.798486,-0.57123 2.475586,-0.571289 l 15.615234,0 0,-7.744141 -23.359375,0 c -2.031257,6.7e-5 -3.850917,0.507879 -5.458984,1.523438 -1.565758,0.973371 -2.348635,3.046937 -2.348633,6.220703 l 0,58.525391 11.679688,0 0,-54.589844 m 3.87207,18.5986327 0,7.80761718 11.743164,0 0,-7.80761718 -11.743164,0"
         style="font-size:130px;font-family:'It wasn\'t me';-inkscape-font-specification:'It wasn\'t me';fill:#41fd69;fill-opacity:1"
         id="path6604" />
      <path
         d="m 98.506855,-17.738602 15.615235,0 c 0.33851,4.6e-5 0.71937,0.02121 1.14258,0.06348 0.46546,0.04236 0.88863,0.211634 1.26953,0.507812 0.38082,0.253951 0.71936,0.63481 1.01562,1.142579 0.33851,0.507855 0.50778,1.248414 0.50782,2.221679 l 0,41.577149 11.67968,0 0,-45.512696 c -4e-5,-1.650343 -0.21163,-2.962191 -0.63476,-3.935547 -0.42323,-1.015574 -1.01567,-1.798451 -1.77735,-2.348632 -0.71944,-0.550078 -1.5658,-0.930937 -2.53906,-1.142578 -0.93103,-0.253854 -1.88318,-0.380807 -2.85644,-0.38086 l -23.422855,0 0,7.807617 m 15.615235,37.705078 -15.615235,0 c -0.338559,8e-6 -0.719418,-0.02115 -1.142578,-0.06348 -0.423193,-0.04231 -0.84637,-0.190422 -1.269531,-0.444336 -0.380874,-0.253898 -0.719416,-0.634757 -1.015625,-1.142578 -0.296238,-0.55012 -0.44435,-1.29068 -0.444336,-2.22168 l 0,-41.640625 -11.679688,0 0,45.512695 c -2e-6,1.650397 0.211587,2.983404 0.634766,3.999024 0.423174,0.97331 0.994462,1.756187 1.713867,2.348633 0.761714,0.550131 1.608067,0.93099 2.539063,1.142578 0.973299,0.211588 1.946605,0.317383 2.919921,0.317383 l 23.359376,0 0,-7.807618"
         style="font-size:130px;font-family:'It wasn\'t me';-inkscape-font-specification:'It wasn\'t me';fill:#41fd69;fill-opacity:1"
         id="path6606" />
      <path
         d="m 133.73635,27.774094 11.67968,0 0,-53.320313 -11.67968,0 0,53.320313 m 15.55176,-45.512696 15.61523,0 c 0.33851,4.6e-5 0.71937,0.02121 1.14258,0.06348 0.46546,0.04236 0.88863,0.211634 1.26953,0.507812 0.38082,0.253951 0.71936,0.63481 1.01562,1.142579 0.33851,0.507855 0.50778,1.248414 0.50782,2.221679 l 0,5.5859377 11.67968,0 0,-9.5214847 c -4e-5,-1.650343 -0.21163,-2.962191 -0.63476,-3.935547 -0.42323,-1.015574 -1.01567,-1.798451 -1.77735,-2.348632 -0.71944,-0.550078 -1.5658,-0.930937 -2.53906,-1.142578 -0.93103,-0.253854 -1.88318,-0.380807 -2.85644,-0.38086 l -23.42285,0 0,7.807617"
         style="font-size:130px;font-family:'It wasn\'t me';-inkscape-font-specification:'It wasn\'t me';fill:#41fd69;fill-opacity:1"
         id="path6608" />
      <path
         d="m 209.20998,-8.2171173 -9.14062,0 0,7.80761718 15.61523,0 c 0.33851,2.818e-5 0.71937,0.021187 1.14258,0.0634766 0.46546,0.0423458 0.88863,0.19045762 1.26953,0.44433594 0.38082,0.25393367 0.71936,0.63479266 1.01562,1.14257812 0.33851,0.5078385 0.50778,1.2483977 0.50782,2.2216797 l 0,24.3115238 11.67968,0 0,-28.18359412 c -4e-5,-1.65036078 -0.21163,-2.96220848 -0.63476,-3.93554688 -0.42323,-1.0155919 -1.01567,-1.7984687 -1.77735,-2.3486328 -0.71944,-0.5924129 -1.5658,-0.9944307 -2.53906,-1.2060547 -0.93103,-0.2115527 -1.88318,-0.3173468 -2.85644,-0.3173828 l -2.60254,0 0,-8.5693357 0,0.126953 0,-8.886719 -11.67969,0 0,17.3291017 m -24.69238,35.9912113 11.67968,0 0,-66.269532 -11.67968,0 0,66.269532"
         style="font-size:130px;font-family:'It wasn\'t me';-inkscape-font-specification:'It wasn\'t me';fill:#41fd69;fill-opacity:1"
         id="path6610" />
    </g>
  </g>
</svg>
