<?xml version="1.0" encoding="UTF-8" standalone="no"?>
<!-- Created with Inkscape (http://www.inkscape.org/) -->

<svg
   xmlns:dc="http://purl.org/dc/elements/1.1/"
   xmlns:cc="http://creativecommons.org/ns#"
   xmlns:rdf="http://www.w3.org/1999/02/22-rdf-syntax-ns#"
   xmlns:svg="http://www.w3.org/2000/svg"
   xmlns="http://www.w3.org/2000/svg"
   xmlns:sodipodi="http://sodipodi.sourceforge.net/DTD/sodipodi-0.dtd"
   xmlns:inkscape="http://www.inkscape.org/namespaces/inkscape"
   width="728px"
   height="90px"
   id="svg3604"
   version="1.1"
   inkscape:version="0.47 r22583"
   sodipodi:docname="helpingpibot.svg">
  <defs
     id="defs3606">
    <inkscape:perspective
       sodipodi:type="inkscape:persp3d"
       inkscape:vp_x="0 : 45 : 1"
       inkscape:vp_y="0 : 1000 : 0"
       inkscape:vp_z="728 : 45 : 1"
       inkscape:persp3d-origin="364 : 30 : 1"
       id="perspective3612" />
    <inkscape:perspective
       id="perspective3656"
       inkscape:persp3d-origin="0.5 : 0.33333333 : 1"
       inkscape:vp_z="1 : 0.5 : 1"
       inkscape:vp_y="0 : 1000 : 0"
       inkscape:vp_x="0 : 0.5 : 1"
       sodipodi:type="inkscape:persp3d" />
  </defs>
  <sodipodi:namedview
     id="base"
     pagecolor="#ffffff"
     bordercolor="#666666"
     borderopacity="1.0"
     inkscape:pageopacity="0.0"
     inkscape:pageshadow="2"
     inkscape:zoom="32"
     inkscape:cx="508.14072"
     inkscape:cy="30.768971"
     inkscape:document-units="px"
     inkscape:current-layer="layer1"
     showgrid="true"
     inkscape:window-width="1388"
     inkscape:window-height="882"
     inkscape:window-x="-3"
     inkscape:window-y="-3"
     inkscape:window-maximized="1">
    <inkscape:grid
       type="xygrid"
       id="grid3614" />
  </sodipodi:namedview>
  <metadata
     id="metadata3609">
    <rdf:RDF>
      <cc:Work
         rdf:about="">
        <dc:format>image/svg+xml</dc:format>
        <dc:type
           rdf:resource="http://purl.org/dc/dcmitype/StillImage" />
        <dc:title />
      </cc:Work>
    </rdf:RDF>
  </metadata>
  <g
     id="layer1"
     inkscape:label="Layer 1"
     inkscape:groupmode="layer">
    <path
       style="fill:#620e5d;stroke:#4a1a47;stroke-width:1px;stroke-linecap:butt;stroke-linejoin:miter;stroke-opacity:1;fill-opacity:1"
       d="m 10,80 0,-70 10,0 0,50 20,0 0,-50 10,0 0,70 -10,0 0,-10 -20,0 0,10 -10,0 z"
       id="path3616"
       transform="translate(34,0)" />
    <path
       style="fill:#620e5d;stroke:#4a1a47;stroke-width:1px;stroke-linecap:butt;stroke-linejoin:miter;stroke-opacity:1;fill-opacity:1"
       d="m 60,80 30,0 0,-10 -20,0 0,-10 20,0 0,-10 -20,0 0,-20 20,0 0,-10 -30,0 0,60 z"
       id="path3624"
       transform="translate(34,0)" />
    <path
       style="fill:#620e5d;stroke:#4a1a47;stroke-width:1px;stroke-linecap:butt;stroke-linejoin:miter;stroke-opacity:1;fill-opacity:1"
       d="m 100,20 0,60 50,0 0,-10 -40,0 0,-50 -10,0 z"
       id="path3626"
       transform="translate(34,0)" />
    <path
       style="fill:#ff6e49;stroke:#a63518;stroke-width:1px;stroke-linecap:butt;stroke-linejoin:miter;stroke-opacity:1;fill-opacity:1"
       d="m 160,20 0,60 10,0 0,-10 c -2.69605,0.490191 64.93166,-7.260301 0,-50 l -10,0 z"
       id="path3628"
       sodipodi:nodetypes="cccccc"
       transform="translate(34,0)" />
    <path
       style="fill:#000000;stroke:#a63518;stroke-width:1px;stroke-linecap:butt;stroke-linejoin:miter;stroke-opacity:1;fill-opacity:1"
       d="m 170,40 0,20 c 0,0 41.33333,-8.666667 0,-20 z"
       id="path3630"
       transform="translate(34,0)" />
    <path
       style="fill:#ff6e49;stroke:#a63518;stroke-width:1px;stroke-linecap:butt;stroke-linejoin:miter;stroke-opacity:1;fill-opacity:1"
       d="m 220,60 0,20 10,0 0,-20 -10,0 z"
       id="path3632"
       transform="translate(24,0)" />
    <path
       style="fill:#ff6e49;stroke:#a63518;stroke-width:1px;stroke-linecap:butt;stroke-linejoin:miter;stroke-opacity:1;fill-opacity:1"
       d="m 220,20 0,10 10,0 0,-10 -10,0 z"
       id="path3636"
       transform="translate(24,10)" />
    <path
       style="fill:#620e5d;stroke:#4a1a47;stroke-width:1px;stroke-linecap:butt;stroke-linejoin:miter;stroke-opacity:1;fill-opacity:1"
       d="m 230,50 0,30 10,0 0,-20 20,20 10,0 0,-50 -10,0 0,40 -20,-20 -10,0 z"
       id="path3638"
       transform="translate(34,0)" />
    <path
       style="fill:#620e5d;stroke:#4a1a47;stroke-width:1px;stroke-linecap:butt;stroke-linejoin:miter;stroke-opacity:1;fill-opacity:1"
       d="m 310,60 -10,0 0,-10 30,0 0,10 -10,0 0,20 -40,0 0,-70 40,0 0,20 -10,0 0,-10 -20,0 0,50 20,0 0,-10 z"
       id="path3646"
       transform="translate(34,0)" />
    <path
       transform="translate(268,0)"
       style="fill:#ff6e49;stroke:#a63518;stroke-width:1px;stroke-linecap:butt;stroke-linejoin:miter;stroke-opacity:1;fill-opacity:1"
       d="m 160,20 0,60 10,0 0,-10 c -2.69605,0.490191 64.93166,-7.260301 0,-50 l -10,0 z"
       id="path3628-9"
       sodipodi:nodetypes="cccccc" />
    <path
       transform="translate(268,0)"
       style="fill:#000000;stroke:#a63518;stroke-width:1px;stroke-linecap:butt;stroke-linejoin:miter;stroke-opacity:1;fill-opacity:1"
       d="m 170,40 0,20 c 0,0 41.33333,-8.666667 0,-20 z"
       id="path3630-4" />
    <path
       style="fill:#ff6e49;stroke:#a63518;stroke-width:1px;stroke-linecap:butt;stroke-linejoin:miter;stroke-opacity:1;fill-opacity:1"
       d="m 220,60 0,20 10,0 0,-20 -10,0 z"
       id="path3632-0"
       transform="translate(258,0)" />
    <path
       style="fill:#ff6e49;stroke:#a63518;stroke-width:1px;stroke-linecap:butt;stroke-linejoin:miter;stroke-opacity:1;fill-opacity:1"
       d="m 220,20 0,10 10,0 0,-10 -10,0 z"
       id="path3636-5"
       transform="translate(258,10)" />
    <path
       style="fill:#620e5d;stroke:#4a1a47;stroke-width:1px;stroke-linecap:butt;stroke-linejoin:miter;stroke-opacity:1;fill-opacity:1"
       d="m 440,20 0,60 40,0 c 4.31275,-6.187472 6.87359,-12.569601 0,-20 l -30,0 20,0 c 13.69548,-11.811614 8.68892,-25.701231 0,-40 l -30,0 z"
       id="path3679"
       sodipodi:nodetypes="cccccccc"
       transform="translate(58,0)" />
    <path
       style="fill:#030303;stroke:#4a1a47;stroke-width:1px;stroke-linecap:butt;stroke-linejoin:miter;stroke-opacity:1;fill-opacity:1"
       d="m 450,30 0,20 10,0 c 5.18268,-4.815709 11.83901,-9.105114 0,-20 l -10,0 z"
       id="path3681"
       sodipodi:nodetypes="ccccc"
       transform="translate(58,0)" />
    <path
       style="fill:#030303;stroke:#4a1a47;stroke-width:1px;stroke-linecap:butt;stroke-linejoin:miter;stroke-opacity:1;fill-opacity:1"
       d="m 445,65 0,10 25,0 c 9.26566,-3.333333 2.43723,-6.666667 0,-10 l -25,0 0,0 z"
       id="path3683"
       sodipodi:nodetypes="cccccc"
       transform="translate(58,0)" />
    <path
       style="fill:#620e5d;stroke:#4a1a47;stroke-width:1px;stroke-linecap:butt;stroke-linejoin:miter;stroke-opacity:1;fill-opacity:1"
       d="M 450.19132,59.830111 440,60"
       id="path3685"
       transform="translate(58,0)" />
    <path
       style="fill:#620e5d;stroke:#4a1a47;stroke-width:1px;stroke-linecap:butt;stroke-linejoin:miter;stroke-opacity:1;fill-opacity:1"
       d="m 500,20 0,60 40,0 0,-60 -40,0 z"
       id="path3687"
       transform="translate(58,0)" />
    <path
       style="fill:#030303;stroke:#4a1a47;stroke-width:1px;stroke-linecap:butt;stroke-linejoin:miter;stroke-opacity:1;fill-opacity:1"
       d="m 510,40 0,30 20,0 0,-30 -20,0 z"
       id="path3689"
       sodipodi:nodetypes="ccccc"
       transform="translate(58,0)" />
    <path
       style="fill:#620e5d;stroke:#4a1a47;stroke-width:1px;stroke-linecap:butt;stroke-linejoin:miter;stroke-opacity:1;fill-opacity:1"
       d="m 560,20 0,60 30,0 0,-10 -20,0 0,-30 10,0 0,-10 -10,0 0,-10 -10,0 z"
       id="path3691"
       transform="translate(58,0)" />
    <path
       style="fill:#620e5d;stroke:#620e5d;stroke-width:1px;stroke-linecap:butt;stroke-linejoin:miter;stroke-opacity:1;fill-opacity:1"
       d="m 527,61 0,-2 -28,0 0,2 28,0 z"
       id="path2922" />
  </g>
</svg>
