<?xml version="1.0" encoding="UTF-8" standalone="no"?>
<!-- Created with Inkscape (http://www.inkscape.org/) -->

<svg
   xmlns:dc="http://purl.org/dc/elements/1.1/"
   xmlns:cc="http://creativecommons.org/ns#"
   xmlns:rdf="http://www.w3.org/1999/02/22-rdf-syntax-ns#"
   xmlns:svg="http://www.w3.org/2000/svg"
   xmlns="http://www.w3.org/2000/svg"
   xmlns:sodipodi="http://sodipodi.sourceforge.net/DTD/sodipodi-0.dtd"
   xmlns:inkscape="http://www.inkscape.org/namespaces/inkscape"
   width="48px"
   height="144px"
   id="svg2865"
   version="1.1"
   inkscape:version="0.47 r22583"
   sodipodi:docname="teleporter.svg">
  <defs
     id="defs2867">
    <inkscape:perspective
       sodipodi:type="inkscape:persp3d"
       inkscape:vp_x="0 : 24 : 1"
       inkscape:vp_y="0 : 1000 : 0"
       inkscape:vp_z="48 : 24 : 1"
       inkscape:persp3d-origin="24 : 16 : 1"
       id="perspective2873" />
  </defs>
  <sodipodi:namedview
     id="base"
     pagecolor="#ffffff"
     bordercolor="#666666"
     borderopacity="1.0"
     inkscape:pageopacity="0.0"
     inkscape:pageshadow="2"
     inkscape:zoom="9.8994949"
     inkscape:cx="28.637372"
     inkscape:cy="97.937938"
     inkscape:current-layer="layer1"
     showgrid="true"
     inkscape:grid-bbox="true"
     inkscape:document-units="px"
     inkscape:window-width="1388"
     inkscape:window-height="882"
     inkscape:window-x="-3"
     inkscape:window-y="-3"
     inkscape:window-maximized="1">
    <inkscape:grid
       type="xygrid"
       id="grid2908" />
  </sodipodi:namedview>
  <metadata
     id="metadata2870">
    <rdf:RDF>
      <cc:Work
         rdf:about="">
        <dc:format>image/svg+xml</dc:format>
        <dc:type
           rdf:resource="http://purl.org/dc/dcmitype/StillImage" />
        <dc:title />
      </cc:Work>
    </rdf:RDF>
  </metadata>
  <g
     id="layer1"
     inkscape:label="Layer 1"
     inkscape:groupmode="layer">
    <path
       style="fill:#000000;stroke:none;stroke-width:1px;stroke-linecap:butt;stroke-linejoin:miter;stroke-opacity:1;fill-opacity:1"
       d="m 0,129 0,15 48,0 0,-15 -48,0 z"
       id="path2910" />
    <path
       style="fill:#37eb23;stroke:none;stroke-width:1px;stroke-linecap:butt;stroke-linejoin:miter;stroke-opacity:1;fill-opacity:1"
       d="m 20,128 8,0 0,-1 -8,0 0,1 z"
       id="path3702" />
    <path
       style="fill:#37eb23;stroke:none;stroke-width:1px;stroke-linecap:butt;stroke-linejoin:miter;stroke-opacity:1;fill-opacity:1"
       d="m 28,125 0,1 -8,0 0,-1 8,0 z"
       id="path3704" />
    <path
       style="fill:#37eb23;stroke:none;stroke-width:1px;stroke-linecap:butt;stroke-linejoin:miter;stroke-opacity:1;fill-opacity:1"
       d="m 19,123 0,1 10,0 0,-1 -10,0 z"
       id="path3706" />
    <path
       style="fill:#37eb23;stroke:none;stroke-width:1px;stroke-linecap:butt;stroke-linejoin:miter;stroke-opacity:1;fill-opacity:1"
       d="M 29.071429,120.96429 29,122 l -10,0 0,-1 10.071429,-0.0357 z"
       id="path3708" />
    <path
       style="fill:#37eb23;stroke:none;stroke-width:1px;stroke-linecap:butt;stroke-linejoin:miter;stroke-opacity:1;fill-opacity:1"
       d="m 18,119 0,1 12,0 0,-1 -12,0 z"
       id="path3712" />
    <path
       style="fill:#37eb23;stroke:none;stroke-width:1px;stroke-linecap:butt;stroke-linejoin:miter;stroke-opacity:1;fill-opacity:1"
       d="m 18,118 0,-1 12,0 0,1 -12,0 z"
       id="path3714" />
    <path
       style="fill:#37eb23;stroke:none;stroke-width:1px;stroke-linecap:butt;stroke-linejoin:miter;stroke-opacity:1;fill-opacity:1"
       d="m 17,115 0,1 14,0 0,-1 -14,0 z"
       id="path3716" />
    <path
       style="fill:#37eb23;stroke:none;stroke-width:1px;stroke-linecap:butt;stroke-linejoin:miter;stroke-opacity:1;fill-opacity:1"
       d="m 17,114 0,-1 14,0 0,1 -14,0 z"
       id="path3718" />
    <path
       style="fill:#37eb23;stroke:none;stroke-width:1px;stroke-linecap:butt;stroke-linejoin:miter;stroke-opacity:1;fill-opacity:1"
       d="m 16,112 0,-1 16,0 0,1 -16,0 z"
       id="path3720" />
    <path
       style="fill:#37eb23;stroke:none;stroke-width:1px;stroke-linecap:butt;stroke-linejoin:miter;stroke-opacity:1;fill-opacity:1"
       d="m 16,110 0,-1 16,0 0,1 -16,0 z"
       id="path3722" />
    <path
       style="fill:#37eb23;stroke:none;stroke-width:1px;stroke-linecap:butt;stroke-linejoin:miter;stroke-opacity:1;fill-opacity:1"
       d="m 15,108 0,-1 18,0 0,1 -18,0 z"
       id="path3724" />
    <path
       style="fill:#37eb23;stroke:none;stroke-width:1px;stroke-linecap:butt;stroke-linejoin:miter;stroke-opacity:1;fill-opacity:1"
       d="m 15,106 0,-1 18,0 0,1 -18,0 z"
       id="path3726" />
    <path
       style="fill:#37eb23;stroke:none;stroke-width:1px;stroke-linecap:butt;stroke-linejoin:miter;stroke-opacity:1;fill-opacity:1"
       d="m 14,104 0,-1 20,0 0,1 -20,0 z"
       id="path3728" />
    <path
       style="fill:#37eb23;stroke:none;stroke-width:1px;stroke-linecap:butt;stroke-linejoin:miter;stroke-opacity:1;fill-opacity:1"
       d="m 14,102 0,-1 20,0 0,1 -20,0 z"
       id="path3730" />
    <path
       style="fill:#37eb23;stroke:none;stroke-width:1px;stroke-linecap:butt;stroke-linejoin:miter;stroke-opacity:1;fill-opacity:1"
       d="m 14,92 -2,-1 24,0 -2,1 -20,0 z"
       id="path3732"
       sodipodi:nodetypes="ccccc" />
    <path
       style="fill:#37eb23;stroke:none;stroke-width:1px;stroke-linecap:butt;stroke-linejoin:miter;stroke-opacity:1;fill-opacity:1"
       d="m 12,89 0,-2 24,0 0,2 -24,0 z"
       id="path3734" />
    <path
       style="fill:#37eb23;stroke:none;stroke-width:1px;stroke-linecap:butt;stroke-linejoin:miter;stroke-opacity:1;fill-opacity:1"
       d="m 12,86 0,-2 24,0 0,2 -24,0 z"
       id="path3736" />
    <path
       style="fill:#37eb23;stroke:none;stroke-width:1px;stroke-linecap:butt;stroke-linejoin:miter;stroke-opacity:1;fill-opacity:1"
       d="m 10,82 0,-2 27,0 0,2 -27,0 z"
       id="path3738" />
    <path
       style="fill:#37eb23;stroke:none;stroke-width:1px;stroke-linecap:butt;stroke-linejoin:miter;stroke-opacity:1;fill-opacity:1"
       d="m 10,78 0,-2 27,0 0,2 -27,0 z"
       id="path3740" />
    <path
       style="fill:#37eb23;stroke:none;stroke-width:1px;stroke-linecap:butt;stroke-linejoin:miter;stroke-opacity:1;fill-opacity:1"
       d="m 10,70 -2,-2 31,0 -2,2 -27,0 z"
       id="path3742"
       sodipodi:nodetypes="ccccc" />
    <path
       style="fill:#37eb23;stroke:none;stroke-width:1px;stroke-linecap:butt;stroke-linejoin:miter;stroke-opacity:1;fill-opacity:1"
       d="m 8,66 0,-2 31,0 0,2 -31,0 z"
       id="path3744" />
    <path
       style="fill:#37eb23;stroke:none;stroke-width:1px;stroke-linecap:butt;stroke-linejoin:miter;stroke-opacity:1;fill-opacity:1"
       d="m 8,62 0,-2 31,0 0,2 -31,0 z"
       id="path3746" />
    <path
       style="fill:#37eb23;stroke:none;stroke-width:1px;stroke-linecap:butt;stroke-linejoin:miter;stroke-opacity:1;fill-opacity:1"
       d="m 8,58 0,-2 31,0 0,2 -31,0 z"
       id="path3748" />
    <path
       style="fill:#37eb23;stroke:none;stroke-width:1px;stroke-linecap:butt;stroke-linejoin:miter;stroke-opacity:1;fill-opacity:1"
       d="m 8,54 0,-2 31,0 0,2 -31,0 z"
       id="path3750" />
  </g>
</svg>
